<?xml version="1.0" encoding="utf-8"?>
<!-- Generator: Adobe Illustrator 25.0.0, SVG Export Plug-In . SVG Version: 6.00 Build 0)  -->
<svg version="1.1" id="Warstwa_1" xmlns="http://www.w3.org/2000/svg" xmlns:xlink="http://www.w3.org/1999/xlink" x="0px" y="0px"
	 viewBox="0 0 1000 1000" style="enable-background:new 0 0 1000 1000;" xml:space="preserve">
<style type="text/css">
	.st0{fill:#000210;}
	.st1{fill:#FFFFFF;}
</style>
<g>
	<circle class="st0" cx="500" cy="500" r="500"/>
	<path class="st1" d="M218.1,377.6v136.8c0,4.3,2.2,8.4,5.8,10.7l281.1,187c4.2,2.8,6.8,7.6,6.8,12.7v65.5c0,3.8,3.1,6.9,6.9,6.9
		h2.9c3.7,0,7.2-1.7,9.6-4.6l248.9-310.9c1.3-1.6,2-3.6,2-5.7v-17.1c0-5.3-4.3-9.7-9.7-9.7h-8.1c-1.5,0-3.1,0.4-4.4,1.1L557.4,554.8
		c-6.4,3.3-14.2,3-20.3-0.9L374.9,449.9c-9.5-5.8-9.2-19.6,0.4-25.1l123-69.6c6.8-3.9,15.2-3.7,21.8,0.4l127.1,78.8
		c4,2.5,8.9,2.7,13.1,0.6l102.8-51.4c10.2-5.1,10.9-19.5,1.1-25.5L511.7,202.8L222.6,369.8C219.8,371.4,218.1,374.4,218.1,377.6z"/>
</g>
</svg>
